<svg width="201" height="61" viewBox="0 0 201 61" fill="none" xmlns="http://www.w3.org/2000/svg">
<g clip-path="url(#clip0_7_1672)">
<path d="M3.26367 21.2277C3.12093 21.0851 3.0498 20.9114 3.0498 20.707V0.76579C3.0498 0.541437 3.11596 0.357468 3.24875 0.214381C3.38105 0.0717928 3.55911 0 3.78343 0H11.2395C17.2492 0 20.3155 2.77748 20.4379 8.3317C20.4782 9.51628 20.4991 10.3127 20.4991 10.7211C20.4991 11.1092 20.4782 11.8957 20.4379 13.0797C20.3563 15.939 19.5869 18.0472 18.1306 19.405C16.6738 20.7633 14.4277 21.4421 11.3922 21.4421H3.78343C3.5795 21.4421 3.40592 21.3708 3.26367 21.2277ZM11.2395 17.8889C12.9306 17.8889 14.1526 17.5112 14.9066 16.7554C15.6601 16.0003 16.0575 14.7444 16.0983 12.9878C16.1391 11.7626 16.1595 10.9968 16.1595 10.6904C16.1595 10.3641 16.1391 9.60827 16.0983 8.42369C16.0575 6.74952 15.6403 5.51907 14.8455 4.73259C14.0512 3.94661 12.7983 3.55324 11.0868 3.55324H7.35853V17.8889H11.2395Z" fill="black"/>
<path d="M26.8392 19.7879C25.5047 18.4814 24.797 16.623 24.7154 14.213L24.6851 13.4472C24.6851 10.8948 25.352 8.8831 26.6865 7.41284C28.0204 5.94259 29.8697 5.20746 32.2332 5.20746C34.6573 5.20746 36.5265 5.94259 37.8405 7.41284C39.1546 8.8831 39.8116 10.8437 39.8116 13.2941V13.9373C39.8116 14.1417 39.74 14.3154 39.5977 14.458C39.455 14.6011 39.2715 14.6726 39.0476 14.6726H28.9023V14.9177C28.9426 16.0614 29.2534 17.0059 29.8343 17.751C30.4148 18.4966 31.214 18.869 32.2332 18.869C33.394 18.869 34.3415 18.3996 35.0751 17.4601C35.2582 17.2355 35.4004 17.0976 35.5029 17.0465C35.6043 16.9957 35.7779 16.97 36.0221 16.97H38.7114C38.8949 16.97 39.0521 17.0211 39.1849 17.1231C39.3172 17.2255 39.3839 17.3681 39.3839 17.5518C39.3839 18.0419 39.0934 18.6192 38.513 19.2826C37.932 19.9464 37.1019 20.5233 36.0221 21.0133C34.9423 21.5034 33.6895 21.7485 32.2635 21.7485C29.9816 21.7485 28.1736 21.0951 26.8392 19.7879ZM35.5944 12.0689V12.0076C35.5944 10.8028 35.2935 9.83809 34.6932 9.11294C34.0918 8.38828 33.2722 8.02557 32.2332 8.02557C31.1942 8.02557 30.379 8.38828 29.7881 9.11294C29.1972 9.83809 28.9023 10.8028 28.9023 12.0076V12.0689H35.5944Z" fill="black"/>
<path d="M44.4863 21.2277C44.3436 21.0851 44.2725 20.9114 44.2725 20.707V6.24895C44.2725 6.02435 44.3436 5.84587 44.4863 5.71275C44.6286 5.58013 44.8022 5.51357 45.0061 5.51357H47.4198C47.6441 5.51357 47.8222 5.58013 47.955 5.71275C48.0868 5.84587 48.1534 6.02435 48.1534 6.24895V7.2902C49.2536 5.90195 50.7303 5.20746 52.5845 5.20746C54.8456 5.20746 56.4242 6.11634 57.321 7.93359C57.8099 7.11695 58.5022 6.45835 59.399 5.95779C60.2953 5.45774 61.2631 5.20746 62.3022 5.20746C63.9723 5.20746 65.3371 5.77931 66.397 6.92276C67.4559 8.06671 67.9856 9.7309 67.9856 11.9156V20.707C67.9856 20.9114 67.9195 21.0851 67.7872 21.2277C67.6544 21.3708 67.4763 21.4421 67.2525 21.4421H64.7159C64.512 21.4421 64.3389 21.3708 64.1966 21.2277C64.0539 21.0851 63.9828 20.9114 63.9828 20.707V12.1606C63.9828 10.8741 63.7122 9.94528 63.1731 9.37319C62.6329 8.80183 61.9246 8.51566 61.0493 8.51566C60.2545 8.51566 59.5771 8.80657 59.017 9.38864C58.4565 9.97046 58.1765 10.8948 58.1765 12.1606V20.707C58.1765 20.9114 58.1103 21.0851 57.978 21.2277C57.8452 21.3708 57.6672 21.4421 57.4433 21.4421H54.8764C54.6725 21.4421 54.4989 21.3708 54.3567 21.2277C54.2139 21.0851 54.1428 20.9114 54.1428 20.707V12.1606C54.1428 10.8948 53.8677 9.97046 53.3176 9.38864C52.7676 8.80657 52.0648 8.51566 51.2093 8.51566C50.4145 8.51566 49.7371 8.80657 49.177 9.38864C48.6165 9.97046 48.337 10.8948 48.337 12.1606V20.707C48.337 20.9114 48.2703 21.0851 48.138 21.2277C48.0052 21.3708 47.8272 21.4421 47.6034 21.4421H45.0061C44.8022 21.4421 44.6286 21.3708 44.4863 21.2277Z" fill="black"/>
<path d="M74.5865 19.9105C73.2824 18.6853 72.5796 16.9905 72.4776 14.8257L72.4473 13.4778L72.4776 12.13C72.5796 9.98592 73.2923 8.29629 74.6168 7.06061C75.9408 5.82518 77.7846 5.20746 80.1481 5.20746C82.4902 5.20746 84.324 5.82518 85.6485 7.06061C86.9725 8.29629 87.6852 9.98592 87.7877 12.13C87.8076 12.3753 87.818 12.8245 87.818 13.4778C87.818 14.1317 87.8076 14.5807 87.7877 14.8257C87.6852 16.9905 86.9824 18.6853 85.6788 19.9105C84.3752 21.1357 82.5315 21.7485 80.1481 21.7485C77.7438 21.7485 75.8896 21.1357 74.5865 19.9105ZM82.6384 17.6438C83.2188 16.97 83.5292 15.9796 83.5705 14.6726C83.5904 14.4687 83.6008 14.0704 83.6008 13.4778C83.6008 12.8858 83.5904 12.4877 83.5705 12.2833C83.5292 10.9766 83.2139 9.98118 82.623 9.29666C82.0321 8.61263 81.207 8.27062 80.1481 8.27062C79.0678 8.27062 78.2327 8.61263 77.6423 9.29666C77.0509 9.98118 76.7356 10.9766 76.6948 12.2833L76.6645 13.4778L76.6948 14.6726C76.7356 15.9796 77.0509 16.97 77.6423 17.6438C78.2327 18.3176 79.0678 18.6546 80.1481 18.6546C81.2274 18.6546 82.058 18.3176 82.6384 17.6438Z" fill="black"/>
<path d="M93.9446 19.8799C92.6102 18.6345 91.9019 16.9087 91.8209 14.7031L91.7905 13.4778L91.8209 12.2526C91.9019 10.0472 92.6102 8.32172 93.9446 7.07582C95.2791 5.83041 97.0666 5.20746 99.3078 5.20746C100.917 5.20746 102.277 5.49363 103.387 6.06498C104.497 6.63708 105.322 7.33631 105.863 8.16343C106.402 8.99029 106.692 9.78201 106.734 10.5373C106.753 10.7417 106.688 10.9155 106.535 11.0581C106.382 11.2012 106.203 11.2725 106 11.2725H103.28C103.056 11.2725 102.893 11.2266 102.791 11.1346C102.689 11.0426 102.587 10.8741 102.486 10.6291C102.18 9.8533 101.778 9.29192 101.279 8.94442C100.78 8.59742 100.143 8.42368 99.369 8.42368C98.33 8.42368 97.5202 8.75048 96.9393 9.40385C96.3589 10.0577 96.048 11.0581 96.0077 12.4057L95.9769 13.5392L96.0077 14.55C96.1296 17.2048 97.2497 18.532 99.369 18.532C100.163 18.532 100.805 18.3637 101.294 18.0267C101.783 17.6897 102.18 17.1231 102.486 16.3266C102.567 16.1023 102.664 15.939 102.776 15.8365C102.888 15.7346 103.056 15.6835 103.28 15.6835H106C106.203 15.6835 106.382 15.7553 106.535 15.8979C106.688 16.0409 106.753 16.2147 106.734 16.4186C106.692 17.1335 106.407 17.9041 105.878 18.7312C105.348 19.5583 104.533 20.268 103.433 20.86C102.333 21.4521 100.958 21.7485 99.3078 21.7485C97.0666 21.7485 95.2791 21.1258 93.9446 19.8799Z" fill="black"/>
<path d="M111.348 21.2277C111.205 21.0851 111.134 20.9114 111.134 20.707V6.27937C111.134 6.05502 111.205 5.8713 111.348 5.72821C111.49 5.58537 111.663 5.51358 111.867 5.51358H114.373C114.597 5.51358 114.781 5.58537 114.923 5.72821C115.066 5.8713 115.137 6.05502 115.137 6.27937V7.53525C116.155 6.18763 117.622 5.51358 119.537 5.51358H120.821C121.045 5.51358 121.223 5.58014 121.356 5.71276C121.488 5.84587 121.554 6.02436 121.554 6.24896V8.485C121.554 8.68941 121.488 8.86316 121.356 9.00575C121.223 9.14884 121.045 9.22013 120.821 9.22013H118.407C117.449 9.22013 116.695 9.49584 116.145 10.0472C115.595 10.5984 115.32 11.3542 115.32 12.314V20.707C115.32 20.9114 115.249 21.0851 115.106 21.2277C114.964 21.3708 114.79 21.4421 114.587 21.4421H111.867C111.663 21.4421 111.49 21.3708 111.348 21.2277Z" fill="black"/>
<path d="M126.673 21.1205C125.806 20.7022 125.124 20.1354 124.625 19.4204C124.126 18.7058 123.876 17.9195 123.876 17.0617C123.876 15.6733 124.437 14.55 125.557 13.6922C126.677 12.8347 128.216 12.2526 130.172 11.9463L134.358 11.3338V10.6904C134.358 9.81267 134.134 9.14883 133.686 8.69938C133.237 8.25043 132.525 8.02557 131.547 8.02557C130.874 8.02557 130.334 8.14797 129.927 8.39301C129.519 8.63806 129.188 8.88833 128.934 9.1436C128.679 9.39911 128.511 9.56762 128.43 9.64889C128.348 9.89393 128.195 10.0166 127.971 10.0166H125.588C125.404 10.0166 125.246 9.95526 125.114 9.83261C124.982 9.71021 124.915 9.54693 124.915 9.34252C124.935 8.8325 125.185 8.25516 125.664 7.61202C126.142 6.96863 126.881 6.40725 127.88 5.92713C128.878 5.44752 130.111 5.20746 131.577 5.20746C133.981 5.20746 135.733 5.74865 136.833 6.83077C137.933 7.9134 138.483 9.33255 138.483 11.0887V20.707C138.483 20.9114 138.417 21.0851 138.285 21.2277C138.152 21.3708 137.974 21.4421 137.75 21.4421H135.214C135.01 21.4421 134.837 21.3708 134.694 21.2277C134.552 21.0851 134.48 20.9114 134.48 20.707V19.5124C134.032 20.166 133.4 20.7022 132.585 21.1205C131.771 21.5388 130.752 21.7485 129.53 21.7485C128.491 21.7485 127.538 21.5388 126.673 21.1205ZM133.319 17.7051C134.032 16.97 134.388 15.9083 134.388 14.5193V13.9069L131.333 14.3969C128.99 14.7644 127.819 15.5509 127.819 16.7554C127.819 17.4092 128.088 17.9148 128.628 18.2718C129.168 18.6292 129.815 18.8077 130.569 18.8077C131.689 18.8077 132.606 18.4403 133.319 17.7051Z" fill="black"/>
<path d="M145.13 19.8799C143.795 18.6345 143.087 16.9087 143.006 14.7031L142.976 13.4778L143.006 12.2526C143.087 10.0472 143.795 8.32172 145.13 7.07582C146.464 5.83041 148.252 5.20746 150.493 5.20746C152.102 5.20746 153.462 5.49363 154.572 6.06498C155.682 6.63708 156.508 7.33631 157.048 8.16343C157.587 8.99029 157.877 9.78201 157.919 10.5373C157.938 10.7417 157.873 10.9155 157.72 11.0581C157.567 11.2012 157.388 11.2725 157.185 11.2725H154.465C154.241 11.2725 154.078 11.2266 153.976 11.1346C153.874 11.0426 153.773 10.8741 153.671 10.6291C153.365 9.8533 152.963 9.29192 152.464 8.94442C151.965 8.59742 151.328 8.42368 150.554 8.42368C149.515 8.42368 148.705 8.75048 148.124 9.40385C147.544 10.0577 147.233 11.0581 147.193 12.4057L147.162 13.5392L147.193 14.55C147.315 17.2048 148.435 18.532 150.554 18.532C151.348 18.532 151.99 18.3637 152.479 18.0267C152.968 17.6897 153.365 17.1231 153.671 16.3266C153.752 16.1023 153.849 15.939 153.961 15.8365C154.073 15.7346 154.241 15.6835 154.465 15.6835H157.185C157.388 15.6835 157.567 15.7553 157.72 15.8979C157.873 16.0409 157.938 16.2147 157.919 16.4186C157.877 17.1335 157.592 17.9041 157.063 18.7312C156.533 19.5583 155.718 20.268 154.618 20.86C153.518 21.4521 152.143 21.7485 150.493 21.7485C148.252 21.7485 146.464 21.1258 145.13 19.8799Z" fill="black"/>
<path d="M164.229 27.0783C164.096 26.9557 164.03 26.8126 164.03 26.6496C164.03 26.5065 164.071 26.3432 164.152 26.1595L166.566 20.4926L160.699 6.6164C160.617 6.43268 160.577 6.29009 160.577 6.18763C160.597 6.00367 160.669 5.84587 160.791 5.71276C160.913 5.58014 161.066 5.51358 161.249 5.51358H163.786C164.152 5.51358 164.417 5.70802 164.58 6.09565L168.645 16.0816L172.77 6.09565C172.973 5.70802 173.259 5.51358 173.625 5.51358H176.101C176.284 5.51358 176.437 5.5749 176.559 5.69755C176.681 5.81995 176.742 5.96303 176.742 6.12631C176.742 6.2694 176.701 6.43268 176.62 6.6164L167.972 26.68C167.809 27.0679 167.523 27.2621 167.117 27.2621H164.672C164.508 27.2621 164.361 27.2007 164.229 27.0783Z" fill="black"/>
<path d="M2.93349 47.653C1.12008 46.2951 0.152693 44.2069 0.0303396 41.3888C0.00994742 40.8374 0 39.9392 0 38.6933C0 37.4272 0.00994742 36.5084 0.0303396 35.9365C0.152693 33.2002 1.14047 31.1327 2.99467 29.7334C4.84837 28.335 7.27305 27.6353 10.2677 27.6353C12.101 27.6353 13.7866 27.911 15.325 28.4624C16.8629 29.0138 18.1157 29.8768 19.0836 31.0506C20.051 32.2253 20.5454 33.7002 20.5658 35.4769C20.5658 35.6608 20.4996 35.8191 20.3673 35.9518C20.2345 36.0849 20.0769 36.1509 19.8933 36.1509H13.6598C13.3335 36.1509 13.0943 36.0896 12.9416 35.9672C12.7884 35.8446 12.6511 35.61 12.5288 35.2625C12.3045 34.65 12.0095 34.221 11.6425 33.976C11.2759 33.7309 10.8069 33.6085 10.2369 33.6085C9.52366 33.6085 8.97357 33.7975 8.58661 34.1751C8.19966 34.5533 7.99573 35.1912 7.97584 36.0896C7.95495 36.641 7.945 37.4886 7.945 38.632C7.945 39.776 7.95495 40.6437 7.97584 41.2358C7.99573 42.1347 8.19966 42.7726 8.58661 43.1502C8.97357 43.5284 9.52366 43.7168 10.2369 43.7168C11.3982 43.7168 12.1622 43.1654 12.5288 42.0629C12.6307 41.7159 12.7581 41.4808 12.9108 41.3581C13.0634 41.2358 13.3131 41.1744 13.6598 41.1744H19.8933C20.0769 41.1744 20.2345 41.241 20.3673 41.3736C20.4996 41.5067 20.5658 41.6645 20.5658 41.8485C20.5454 43.6251 20.051 45.1006 19.0836 46.2747C18.1157 47.4491 16.8629 48.3116 15.325 48.863C13.7866 49.4144 12.101 49.6901 10.2677 49.6901C7.19099 49.6901 4.74641 49.0113 2.93349 47.653Z" fill="black"/>
<path d="M23.4683 42.8593C23.4474 42.5529 23.4375 42.0733 23.4375 41.4195C23.4375 40.7661 23.4474 40.2862 23.4683 39.9799C23.6106 37.7543 24.4561 36.0589 26.0044 34.895C27.5522 33.7309 29.6611 33.1491 32.33 33.1491C34.9989 33.1491 37.1072 33.7309 38.6556 34.895C40.2039 36.0589 41.0494 37.7543 41.1921 39.9799C41.2324 40.5923 41.2533 41.0725 41.2533 41.4195C41.2533 41.767 41.2324 42.2466 41.1921 42.8593C40.8863 47.4132 37.9324 49.6901 32.33 49.6901C26.7276 49.6901 23.7737 47.4132 23.4683 42.8593ZM33.3998 44.3448C33.5625 44.0491 33.6639 43.5024 33.7052 42.706C33.7251 42.5021 33.7356 42.0733 33.7356 41.4195C33.7356 40.7661 33.7251 40.3373 33.7052 40.1329C33.644 39.3572 33.5321 38.8157 33.369 38.5096C33.2059 38.2032 32.8597 38.0499 32.33 38.0499C31.8003 38.0499 31.4541 38.2032 31.291 38.5096C31.1278 38.8157 31.0159 39.3572 30.9548 40.1329L30.9244 41.4195L30.9548 42.706C30.9955 43.5024 31.0975 44.0491 31.2606 44.3448C31.4233 44.6412 31.7799 44.789 32.33 44.789C32.8801 44.789 33.2362 44.6412 33.3998 44.3448Z" fill="black"/>
<path d="M47.5483 48.9395C46.6515 48.4395 45.9338 47.6684 45.3942 46.6269C44.854 45.5854 44.5845 44.2889 44.5845 42.7367V34.2823C44.5845 34.058 44.6655 33.864 44.8287 33.7002C44.9913 33.5372 45.1848 33.4552 45.4091 33.4552H51.2463C51.4701 33.4552 51.6636 33.5372 51.8267 33.7002C51.9893 33.864 52.0709 34.058 52.0709 34.2823V42.5223C52.0709 43.0737 52.2032 43.4925 52.4683 43.7782C52.7329 44.0643 53.1099 44.2069 53.5988 44.2069C54.0877 44.2069 54.4647 44.0643 54.7298 43.7782C54.9944 43.4925 55.1267 43.0737 55.1267 42.5223V34.2823C55.1267 34.058 55.2083 33.864 55.3715 33.7002C55.5341 33.5372 55.7276 33.4552 55.9519 33.4552H61.7582C61.982 33.4552 62.1755 33.5372 62.3386 33.7002C62.5018 33.864 62.5833 34.058 62.5833 34.2823V48.5566C62.5833 48.7817 62.5018 48.9754 62.3386 49.1387C62.1755 49.3025 61.982 49.3837 61.7582 49.3837H56.4105C56.1861 49.3837 55.9927 49.3025 55.83 49.1387C55.6664 48.9754 55.5853 48.7817 55.5853 48.5566V47.5458C55.0964 48.261 54.4135 48.7969 53.5381 49.1539C52.6618 49.5111 51.6531 49.6901 50.5126 49.6901C49.4323 49.6901 48.4446 49.4398 47.5483 48.9395Z" fill="black"/>
<path d="M66.7999 49.1387C66.6367 48.9754 66.5557 48.7817 66.5557 48.5566V34.2823C66.5557 34.058 66.6367 33.864 66.7999 33.7002C66.963 33.5372 67.156 33.4552 67.3808 33.4552H72.7285C72.9524 33.4552 73.1458 33.5372 73.309 33.7002C73.4716 33.864 73.5537 34.058 73.5537 34.2823V35.2931C74.0829 34.6605 74.8011 34.1445 75.7078 33.7464C76.614 33.348 77.5874 33.1491 78.6264 33.1491C79.7057 33.1491 80.6934 33.3994 81.5902 33.8994C82.4865 34.4 83.2047 35.1707 83.7448 36.2122C84.2844 37.2537 84.5545 38.5507 84.5545 40.1023V48.5566C84.5545 48.7817 84.473 48.9754 84.3098 49.1387C84.1467 49.3025 83.9532 49.3837 83.7294 49.3837H77.8927C77.6684 49.3837 77.4749 49.3025 77.3123 49.1387C77.1487 48.9754 77.0676 48.7817 77.0676 48.5566V40.3169C77.0676 39.7655 76.9348 39.3472 76.6702 39.0608C76.4056 38.7751 76.0286 38.632 75.5397 38.632C75.0508 38.632 74.6738 38.7751 74.4092 39.0608C74.1441 39.3472 74.0118 39.7655 74.0118 40.3169V48.5566C74.0118 48.7817 73.9302 48.9754 73.7675 49.1387C73.6039 49.3025 73.4109 49.3837 73.1866 49.3837H67.3808C67.156 49.3837 66.963 49.3025 66.7999 49.1387Z" fill="black"/>
<path d="M92.4691 47.8674C91.1242 46.8565 90.4518 45.1672 90.4518 42.798V38.8157H88.038C87.8137 38.8157 87.6202 38.7345 87.4571 38.5707C87.294 38.4077 87.2129 38.2137 87.2129 37.9889V34.2823C87.2129 34.058 87.294 33.864 87.4571 33.7002C87.6202 33.5372 87.8137 33.4552 88.038 33.4552H90.4518V28.4624C90.4518 28.2378 90.5333 28.0441 90.6965 27.8803C90.8591 27.7173 91.0526 27.6353 91.2769 27.6353H96.6246C96.849 27.6353 97.0419 27.7173 97.2056 27.8803C97.3682 28.0441 97.4498 28.2378 97.4498 28.4624V33.4552H101.3C101.524 33.4552 101.718 33.5372 101.881 33.7002C102.043 33.864 102.126 34.058 102.126 34.2823V37.9889C102.126 38.2137 102.043 38.4077 101.881 38.5707C101.718 38.7345 101.524 38.8157 101.3 38.8157H97.4498V42.1853C97.4498 43.2066 97.888 43.7168 98.7638 43.7168H101.545C101.768 43.7168 101.962 43.7989 102.126 43.9619C102.288 44.1257 102.37 44.3194 102.37 44.544V48.5566C102.37 48.7817 102.288 48.9754 102.126 49.1387C101.962 49.3025 101.768 49.3837 101.545 49.3837H98.0914C95.6876 49.3837 93.8135 48.8782 92.4691 47.8674Z" fill="black"/>
<path d="M107.825 47.7295C106.49 46.423 105.782 44.5646 105.701 42.1546L105.67 41.3888C105.67 38.8364 106.337 36.8247 107.672 35.3545C109.006 33.8842 110.855 33.1491 113.219 33.1491C115.643 33.1491 117.512 33.8842 118.826 35.3545C120.14 36.8247 120.797 38.7853 120.797 41.2357V41.8789C120.797 42.0833 120.725 42.257 120.583 42.3996C120.44 42.5427 120.257 42.6143 120.033 42.6143H109.888V42.8593C109.928 44.003 110.239 44.9475 110.82 45.6926C111.4 46.4382 112.199 46.8106 113.219 46.8106C114.379 46.8106 115.327 46.3413 116.06 45.4017C116.244 45.1771 116.386 45.0393 116.488 44.9882C116.59 44.9373 116.763 44.9116 117.007 44.9116H119.697C119.88 44.9116 120.037 44.9627 120.17 45.0647C120.303 45.1671 120.369 45.3097 120.369 45.4935C120.369 45.9835 120.079 46.5609 119.498 47.2242C118.917 47.888 118.087 48.4649 117.007 48.955C115.928 49.445 114.675 49.6901 113.249 49.6901C110.967 49.6901 109.159 49.0367 107.825 47.7295ZM116.58 40.0105V39.9492C116.58 38.7444 116.279 37.7797 115.679 37.0546C115.077 36.3299 114.258 35.9672 113.219 35.9672C112.18 35.9672 111.364 36.3299 110.773 37.0546C110.183 37.7797 109.888 38.7444 109.888 39.9492V40.0105H116.58Z" fill="black"/>
<path d="M125.472 49.1693C125.329 49.0268 125.258 48.853 125.258 48.6486V34.221C125.258 33.9966 125.329 33.8129 125.472 33.6698C125.614 33.527 125.788 33.4552 125.991 33.4552H128.497C128.721 33.4552 128.905 33.527 129.047 33.6698C129.19 33.8129 129.261 33.9966 129.261 34.221V35.4769C130.279 34.1293 131.746 33.4552 133.661 33.4552H134.945C135.169 33.4552 135.347 33.5218 135.48 33.6544C135.612 33.7875 135.678 33.966 135.678 34.1906V36.4266C135.678 36.631 135.612 36.8048 135.48 36.9474C135.347 37.0905 135.169 37.1618 134.945 37.1618H132.531C131.573 37.1618 130.819 37.4375 130.269 37.9889C129.719 38.54 129.444 39.2958 129.444 40.2556V48.6486C129.444 48.853 129.373 49.0268 129.23 49.1693C129.088 49.3124 128.914 49.3837 128.711 49.3837H125.991C125.788 49.3837 125.614 49.3124 125.472 49.1693Z" fill="black"/>
<path d="M137.495 48.59C137.281 48.6393 137.048 48.6122 136.841 48.4958C136.399 48.2473 136.241 47.6864 136.489 47.2432L145.601 30.9414C146.403 29.5062 148.082 28.7611 149.68 29.1286L153.87 30.0922C154.364 30.2059 154.673 30.6999 154.56 31.1951C154.446 31.6905 153.954 31.9991 153.46 31.8864L149.27 30.9228C148.46 30.7354 147.609 31.1139 147.203 31.8412L138.091 48.1429C137.959 48.3787 137.739 48.5338 137.495 48.59Z" fill="black"/>
<path d="M183.912 35.88C183.697 35.9294 183.464 35.9023 183.257 35.7858C182.815 35.5373 182.658 34.9769 182.905 34.5332L192.017 18.2312C192.82 16.7959 194.497 16.0498 196.097 16.419L200.287 17.3823C200.781 17.496 201.09 17.9899 200.976 18.4852C200.863 18.9805 200.37 19.2895 199.876 19.1765L195.686 18.2128C194.876 18.0259 194.026 18.4035 193.619 19.1309L184.507 35.433C184.375 35.6688 184.155 35.8239 183.912 35.88Z" fill="black"/>
<path d="M148.514 60.0784C154.742 60.0784 159.79 55.0179 159.79 48.7755C159.79 42.533 154.742 37.4725 148.514 37.4725C142.287 37.4725 137.238 42.533 137.238 48.7755C137.238 55.0179 142.287 60.0784 148.514 60.0784Z" fill="#89C0E5"/>
<path d="M151.24 60.6895C144.908 62.1484 138.479 58.3354 136.751 51.9964C134.98 45.4948 138.815 38.7607 145.301 36.9841C151.769 35.211 158.506 39.0528 160.278 45.5546C162.049 52.0562 158.214 58.7903 151.728 60.5669C151.565 60.6112 151.403 60.6521 151.24 60.6895ZM146.199 38.6553C146.061 38.6872 145.923 38.7219 145.785 38.7596C140.276 40.2683 137.017 45.9891 138.522 51.5115C140.027 57.034 145.736 60.2979 151.244 58.7914C156.753 57.2828 160.011 51.5618 158.506 46.0395C157.039 40.6555 151.577 37.4163 146.199 38.6553Z" fill="black"/>
<path d="M175.59 52.6643C181.818 52.6643 186.866 47.6038 186.866 41.3613C186.866 35.1189 181.818 30.0583 175.59 30.0583C169.363 30.0583 164.314 35.1189 164.314 41.3613C164.314 47.6038 169.363 52.6643 175.59 52.6643Z" fill="#E06896"/>
<path d="M178.31 53.277C175.319 53.966 172.226 53.5106 169.545 51.9765C166.717 50.3579 164.686 47.7321 163.827 44.5823C162.969 41.4329 163.386 38.1365 165.001 35.3014C166.616 32.4659 169.235 30.4305 172.377 29.57C178.861 27.7974 185.582 31.6387 187.354 38.1402C189.125 44.6422 185.29 51.3766 178.804 53.1525C178.64 53.1973 178.475 53.239 178.31 53.277ZM173.275 31.2413C173.137 31.2731 172.999 31.3078 172.861 31.3456C167.352 32.8539 164.094 38.5746 165.599 44.0975C166.328 46.7729 168.053 49.0034 170.455 50.3784C172.858 51.7534 175.65 52.1131 178.32 51.3769C183.829 49.8687 187.087 44.1477 185.583 38.625C184.115 33.241 178.653 30.0022 173.275 31.2413Z" fill="black"/>
<path d="M157.054 41.9993C156.892 42.0367 156.715 42.0177 156.556 41.9325C156.208 41.7454 156.077 41.3105 156.263 40.9614C156.662 40.2152 157.402 39.1775 158.668 38.4728C161.536 36.8753 164.573 38.3845 164.909 38.5616C165.258 38.7458 165.393 39.1795 165.209 39.5302C165.026 39.8812 164.593 40.0157 164.243 39.8317C163.976 39.6911 161.574 38.496 159.363 39.7267C158.402 40.2622 157.833 41.0619 157.525 41.6385C157.423 41.8286 157.249 41.9544 157.054 41.9993Z" fill="black"/>
</g>
<defs>
<clipPath id="clip0_7_1672">
<rect width="201" height="61" fill="white"/>
</clipPath>
</defs>
</svg>
